# xmcd
#
# Track frame offsets:
#	150
#	13737
#	26410
#	45287
#	59450
#	71141
#	81525
#	91066
#	107809
#	119151
#	131078
#	141755
#	153732
#	176878
#	191619
#	208663
#	225613
#	235341
#	243339
#	258912
#	274464
#	286971
#	297463
#	312438
#
# Disc length: 4381 seconds
#
# Revision: 1
# Processed by: cddbd v1.5.2PL0 Copyright (c) Steve Scherf et al.
# Submitted via: audiograbber 1.83.01
#
DISCID=75111b18
DTITLE=Sampler - Cowboy Dreams - CD 1 - Wenn Cowboys träumen
DYEAR=2008
DGENRE=Country
TTITLE0=Glen Campbell - Rhinestone Cowboy
TTITLE1=Floyd McEvans - Some Broken Hearts Never Mend
TTITLE2=Rebecca Holden, John Brack - Banks Of The Ohio
TTITLE3=John Denver - Annie's Song
TTITLE4=Conway Twitty - To See An Angel Cry
TTITLE5=Dave Dudley - Six Days On The Road
TTITLE6=Bobby Sykes - Tennessee Waltz
TTITLE7=Lee Greenwood - Ring On Her Finger, Time On Her Hands
TTITLE8=The Kendalls - Heaven's Just A Sin Away
TTITLE9=Waylon Jennings - Crying
TTITLE10=Roger Miller - Don't We All Have The Right
TTITLE11=Holly Dun - That's What Your Love Does To Me
TTITLE12=John Denver - Sunshine On My Shoulders
TTITLE13=T. Graham Brwn - Darlene
TTITLE14=Pam Gadd - Sweet Betsy From Pike
TTITLE15=Conway Twitty - Don't Cry Joni
TTITLE16=Dave Dudley - Last Day In The Mines
TTITLE17=Roger Miller - Do-Wacka-Do
TTITLE18=Holly Dunn - Daddy's Hands
TTITLE19=Conway Twitty - Touch The Hand
TTITLE20=Johnny Lee - One In A Million
TTITLE21=Patsy Cline - I Love You Honey
TTITLE22=Ed Bruce - You're The Best Break This Old Heart Ever Had
TTITLE23=John Brack - Red River Valley
EXTD=
EXTT0=
EXTT1=
EXTT2=
EXTT3=
EXTT4=
EXTT5=
EXTT6=
EXTT7=
EXTT8=
EXTT9=
EXTT10=
EXTT11=
EXTT12=
EXTT13=
EXTT14=
EXTT15=
EXTT16=
EXTT17=
EXTT18=
EXTT19=
EXTT20=
EXTT21=
EXTT22=
EXTT23=
PLAYORDER=
